<svg width="152" height="152" viewBox="0 0 152 152" fill="none" xmlns="http://www.w3.org/2000/svg">
<g filter="url(#filter0_b_269_3362)">
<rect x="1" y="1" width="150" height="150" rx="38" fill="url(#paint0_radial_269_3362)" fill-opacity="0.2"/>
<rect x="1" y="1" width="150" height="150" rx="38" stroke="url(#paint1_linear_269_3362)" stroke-width="2"/>
</g>
<circle cx="98" cy="61" r="25" fill="url(#paint2_linear_269_3362)"/>
<g filter="url(#filter1_b_269_3362)">
<path fill-rule="evenodd" clip-rule="evenodd" d="M83.6801 46.8606C84.1554 45.5643 83.4899 44.1281 82.1936 43.6528C80.8973 43.1774 79.4611 43.843 78.9858 45.1393L78.1783 47.3414C77.6896 48.6744 76.4207 49.5606 75.001 49.5606C71.0331 49.5606 67.6086 52.3419 66.7949 56.2254L65.6415 61.7303C65.4464 61.6974 65.2518 61.6604 65.0578 61.6192C63.6639 61.3233 62.2803 60.7222 58.8625 59.2032L57.0926 58.4166C54.7438 57.3727 52.202 56.8333 49.6317 56.8333C38.4524 56.8333 29.8649 66.7347 31.4459 77.8016L32.2155 83.1892L37.0698 100.179C38.477 105.104 42.9787 108.5 48.101 108.5C52.0047 108.5 55.6406 106.515 57.7515 103.231L58.9994 101.29C63.2111 94.7385 72.7881 94.7385 76.9998 101.29L77.7632 102.477C80.1761 106.231 84.3321 108.5 88.7943 108.5C95.3204 108.5 100.853 103.701 101.776 97.2407L104.553 77.8016C106.134 66.7347 97.5468 56.8333 86.3675 56.8333C83.7972 56.8333 81.2554 57.3727 78.9066 58.4166L77.1367 59.2032C73.7189 60.7222 72.3353 61.3233 70.9414 61.6192C70.8829 61.6316 70.8244 61.6436 70.7658 61.6553L71.6886 57.2508C72.0171 55.6832 73.3994 54.5606 75.001 54.5606C78.5184 54.5606 81.6618 52.365 82.8727 49.0626L83.6801 46.8606Z" fill="#29ACD6" fill-opacity="0.35"/>
<path fill-rule="evenodd" clip-rule="evenodd" d="M83.6801 46.8606C84.1554 45.5643 83.4899 44.1281 82.1936 43.6528C80.8973 43.1774 79.4611 43.843 78.9858 45.1393L78.1783 47.3414C77.6896 48.6744 76.4207 49.5606 75.001 49.5606C71.0331 49.5606 67.6086 52.3419 66.7949 56.2254L65.6415 61.7303C65.4464 61.6974 65.2518 61.6604 65.0578 61.6192C63.6639 61.3233 62.2803 60.7222 58.8625 59.2032L57.0926 58.4166C54.7438 57.3727 52.202 56.8333 49.6317 56.8333C38.4524 56.8333 29.8649 66.7347 31.4459 77.8016L32.2155 83.1892L37.0698 100.179C38.477 105.104 42.9787 108.5 48.101 108.5C52.0047 108.5 55.6406 106.515 57.7515 103.231L58.9994 101.29C63.2111 94.7385 72.7881 94.7385 76.9998 101.29L77.7632 102.477C80.1761 106.231 84.3321 108.5 88.7943 108.5C95.3204 108.5 100.853 103.701 101.776 97.2407L104.553 77.8016C106.134 66.7347 97.5468 56.8333 86.3675 56.8333C83.7972 56.8333 81.2554 57.3727 78.9066 58.4166L77.1367 59.2032C73.7189 60.7222 72.3353 61.3233 70.9414 61.6192C70.8829 61.6316 70.8244 61.6436 70.7658 61.6553L71.6886 57.2508C72.0171 55.6832 73.3994 54.5606 75.001 54.5606C78.5184 54.5606 81.6618 52.365 82.8727 49.0626L83.6801 46.8606Z" stroke="url(#paint3_linear_269_3362)"/>
</g>
<g filter="url(#filter2_d_269_3362)">
<path fill-rule="evenodd" clip-rule="evenodd" d="M87.9998 72.6666C87.9998 74.5075 86.5074 75.9999 84.6665 75.9999C82.8255 75.9999 81.3331 74.5075 81.3331 72.6666C81.3331 70.8256 82.8255 69.3333 84.6665 69.3333C86.5074 69.3333 87.9998 70.8256 87.9998 72.6666ZM81.3331 79.3333C81.3331 81.1742 79.8407 82.6666 77.9998 82.6666C76.1589 82.6666 74.6665 81.1742 74.6665 79.3333C74.6665 77.4923 76.1589 75.9999 77.9998 75.9999C79.8407 75.9999 81.3331 77.4923 81.3331 79.3333ZM91.3331 82.6666C93.1741 82.6666 94.6665 81.1742 94.6665 79.3333C94.6665 77.4923 93.1741 75.9999 91.3331 75.9999C89.4922 75.9999 87.9998 77.4923 87.9998 79.3333C87.9998 81.1742 89.4922 82.6666 91.3331 82.6666ZM87.9998 85.9999C87.9998 87.8409 86.5074 89.3332 84.6665 89.3332C82.8255 89.3332 81.3331 87.8409 81.3331 85.9999C81.3331 84.159 82.8255 82.6666 84.6665 82.6666C86.5074 82.6666 87.9998 84.159 87.9998 85.9999ZM53.8329 72.6666C53.8329 71.2859 52.7136 70.1666 51.3329 70.1666C49.9522 70.1666 48.8329 71.2859 48.8329 72.6666V76.8333H44.6663C43.2855 76.8333 42.1663 77.9525 42.1663 79.3333C42.1663 80.714 43.2855 81.8333 44.6663 81.8333H48.8329V85.9999C48.8329 87.3806 49.9522 88.4999 51.3329 88.4999C52.7136 88.4999 53.8329 87.3806 53.8329 85.9999V81.8333H57.9996C59.3803 81.8333 60.4996 80.714 60.4996 79.3333C60.4996 77.9525 59.3803 76.8333 57.9996 76.8333H53.8329V72.6666Z" fill="url(#paint4_linear_269_3362)"/>
</g>
<defs>
<filter id="filter0_b_269_3362" x="-24" y="-24" width="200" height="200" filterUnits="userSpaceOnUse" color-interpolation-filters="sRGB">
<feFlood flood-opacity="0" result="BackgroundImageFix"/>
<feGaussianBlur in="BackgroundImageFix" stdDeviation="12"/>
<feComposite in2="SourceAlpha" operator="in" result="effect1_backgroundBlur_269_3362"/>
<feBlend mode="normal" in="SourceGraphic" in2="effect1_backgroundBlur_269_3362" result="shape"/>
</filter>
<filter id="filter1_b_269_3362" x="6.75781" y="18.999" width="122.484" height="114.001" filterUnits="userSpaceOnUse" color-interpolation-filters="sRGB">
<feFlood flood-opacity="0" result="BackgroundImageFix"/>
<feGaussianBlur in="BackgroundImageFix" stdDeviation="12"/>
<feComposite in2="SourceAlpha" operator="in" result="effect1_backgroundBlur_269_3362"/>
<feBlend mode="normal" in="SourceGraphic" in2="effect1_backgroundBlur_269_3362" result="shape"/>
</filter>
<filter id="filter2_d_269_3362" x="39.1663" y="66.3333" width="68.5002" height="36" filterUnits="userSpaceOnUse" color-interpolation-filters="sRGB">
<feFlood flood-opacity="0" result="BackgroundImageFix"/>
<feColorMatrix in="SourceAlpha" type="matrix" values="0 0 0 0 0 0 0 0 0 0 0 0 0 0 0 0 0 0 127 0" result="hardAlpha"/>
<feOffset dx="5" dy="5"/>
<feGaussianBlur stdDeviation="4"/>
<feColorMatrix type="matrix" values="0 0 0 0 0.176471 0 0 0 0 0.556863 0 0 0 0 0.678431 0 0 0 0.5 0"/>
<feBlend mode="normal" in2="BackgroundImageFix" result="effect1_dropShadow_269_3362"/>
<feBlend mode="normal" in="SourceGraphic" in2="effect1_dropShadow_269_3362" result="shape"/>
</filter>
<radialGradient id="paint0_radial_269_3362" cx="0" cy="0" r="1" gradientUnits="userSpaceOnUse" gradientTransform="translate(1 1) rotate(45) scale(212.132)">
<stop stop-color="#FAFAFA"/>
<stop offset="1" stop-color="#F7F7F7" stop-opacity="0"/>
</radialGradient>
<linearGradient id="paint1_linear_269_3362" x1="76" y1="1" x2="76" y2="151" gradientUnits="userSpaceOnUse">
<stop stop-color="white"/>
<stop offset="1" stop-color="white" stop-opacity="0"/>
</linearGradient>
<linearGradient id="paint2_linear_269_3362" x1="73" y1="86" x2="124.065" y2="37.1129" gradientUnits="userSpaceOnUse">
<stop stop-color="#207894"/>
<stop offset="1" stop-color="#2ECDFF"/>
</linearGradient>
<linearGradient id="paint3_linear_269_3362" x1="31.2578" y1="43.4993" x2="95.8132" y2="116.405" gradientUnits="userSpaceOnUse">
<stop stop-color="white" stop-opacity="0.25"/>
<stop offset="1" stop-color="white" stop-opacity="0"/>
</linearGradient>
<linearGradient id="paint4_linear_269_3362" x1="68.8585" y1="93.5941" x2="87.5017" y2="45.622" gradientUnits="userSpaceOnUse">
<stop stop-color="white"/>
<stop offset="1" stop-color="white" stop-opacity="0.2"/>
</linearGradient>
</defs>
</svg>
