<svg width="152" height="152" viewBox="0 0 152 152" fill="none" xmlns="http://www.w3.org/2000/svg">
<g filter="url(#filter0_b_402_222)">
<rect x="1" y="1" width="150" height="150" rx="38" fill="url(#paint0_radial_402_222)" fill-opacity="0.2"/>
<rect x="1" y="1" width="150" height="150" rx="38" stroke="url(#paint1_linear_402_222)" stroke-width="2"/>
</g>
<g clip-path="url(#clip0_402_222)">
<g clip-path="url(#clip1_402_222)">
<path fill-rule="evenodd" clip-rule="evenodd" d="M49.4524 50.9637C53.1481 49.9734 56.0451 49.1972 58.4102 48.8303C60.8238 48.456 62.8656 48.4746 64.8041 49.2187C65.9776 49.6692 67.073 50.3016 68.0499 51.0927C69.6636 52.3994 70.7006 54.1584 71.5832 56.4358C72.4481 58.6674 73.2243 61.5644 74.2146 65.2601L74.2634 65.4425C75.2537 69.1381 76.0299 72.035 76.3967 74.4001C76.7711 76.8136 76.7524 78.8555 76.0083 80.794C75.5578 81.9675 74.9254 83.0629 74.1344 84.0398C72.8276 85.6534 71.0687 86.6905 68.7913 87.5731C66.5597 88.4379 63.6626 89.2142 59.967 90.2044L59.7846 90.2533C56.089 91.2435 53.192 92.0198 50.827 92.3866C48.4134 92.761 46.3716 92.7423 44.4331 91.9982C43.2595 91.5477 42.1642 90.9153 41.1873 90.1242C39.5736 88.8175 38.5366 87.0585 37.654 84.7812C36.7891 82.5495 36.0129 79.6525 35.0226 75.9568L34.9738 75.7747C33.9835 72.0789 33.2073 69.182 32.8405 66.8169C32.4661 64.4033 32.4848 62.3614 33.2289 60.423C33.6794 59.2494 34.3117 58.1541 35.1028 57.1772C36.4095 55.5635 38.1685 54.5264 40.4459 53.6438C42.6775 52.779 45.5745 52.0028 49.2703 51.0125L49.4524 50.9637ZM53.4318 60.1423C53.2085 59.3088 52.3517 58.8141 51.5182 59.0375C50.6846 59.2608 50.19 60.1176 50.4133 60.9511L55.8054 81.0746C56.0287 81.9081 56.8855 82.4028 57.719 82.1795C58.5526 81.9561 59.0472 81.0993 58.8239 80.2658L53.4318 60.1423ZM63.638 66.0349C63.4147 65.2014 62.5579 64.7067 61.7244 64.93C60.8908 65.1534 60.3962 66.0102 60.6195 66.8437L63.8547 78.9178C64.0781 79.7513 64.9349 80.246 65.7684 80.0226C66.602 79.7993 67.0966 78.9425 66.8733 78.109L63.638 66.0349ZM48.6177 74.3732C48.3943 73.5397 47.5376 73.045 46.704 73.2684C45.8705 73.4917 45.3758 74.3485 45.5992 75.182L47.756 83.2314C47.9793 84.065 48.8361 84.5596 49.6697 84.3363C50.5032 84.1129 50.9979 83.2562 50.7745 82.4226L48.6177 74.3732Z" fill="url(#paint2_linear_402_222)"/>
</g>
<g clip-path="url(#clip2_402_222)">
<g filter="url(#filter1_b_402_222)">
<path fill-rule="evenodd" clip-rule="evenodd" d="M87.5574 44.6362C93.4705 46.2206 98.1057 47.4626 101.676 48.8464C105.32 50.2585 108.134 51.9178 110.225 54.4997C111.491 56.0627 112.503 57.8153 113.224 59.6929C114.414 62.7945 114.444 66.0615 113.845 69.9232C113.258 73.7073 112.016 78.3426 110.432 84.2556L110.353 84.5474C108.769 90.4604 107.527 95.0955 106.143 98.6661C104.731 102.31 103.072 105.124 100.49 107.215C98.927 108.481 97.1745 109.493 95.2968 110.213C92.1952 111.404 88.9283 111.434 85.0666 110.835C81.2825 110.248 76.6472 109.006 70.7342 107.421L70.4424 107.343C64.5293 105.759 59.8943 104.517 56.3237 103.133C52.6799 101.721 49.8655 100.062 47.7748 97.4798C46.5091 95.9168 45.4972 94.1642 44.7765 92.2866C43.5859 89.185 43.556 85.918 44.155 82.0563C44.7419 78.2722 45.9839 73.637 47.5684 67.7239L47.6465 67.4324C49.2309 61.5193 50.4728 56.8841 51.8566 53.3134C53.2687 49.6696 54.9281 46.8553 57.5099 44.7645C59.073 43.4988 60.8255 42.487 62.7032 41.7662C65.8048 40.5756 69.0718 40.5458 72.9334 41.1447C76.7176 41.7317 81.3527 42.9737 87.2659 44.5581L87.5574 44.6362Z" fill="#29ACD6" fill-opacity="0.35"/>
<path fill-rule="evenodd" clip-rule="evenodd" d="M87.5574 44.6362C93.4705 46.2206 98.1057 47.4626 101.676 48.8464C105.32 50.2585 108.134 51.9178 110.225 54.4997C111.491 56.0627 112.503 57.8153 113.224 59.6929C114.414 62.7945 114.444 66.0615 113.845 69.9232C113.258 73.7073 112.016 78.3426 110.432 84.2556L110.353 84.5474C108.769 90.4604 107.527 95.0955 106.143 98.6661C104.731 102.31 103.072 105.124 100.49 107.215C98.927 108.481 97.1745 109.493 95.2968 110.213C92.1952 111.404 88.9283 111.434 85.0666 110.835C81.2825 110.248 76.6472 109.006 70.7342 107.421L70.4424 107.343C64.5293 105.759 59.8943 104.517 56.3237 103.133C52.6799 101.721 49.8655 100.062 47.7748 97.4798C46.5091 95.9168 45.4972 94.1642 44.7765 92.2866C43.5859 89.185 43.556 85.918 44.155 82.0563C44.7419 78.2722 45.9839 73.637 47.5684 67.7239L47.6465 67.4324C49.2309 61.5193 50.4728 56.8841 51.8566 53.3134C53.2687 49.6696 54.9281 46.8553 57.5099 44.7645C59.073 43.4988 60.8255 42.487 62.7032 41.7662C65.8048 40.5756 69.0718 40.5458 72.9334 41.1447C76.7176 41.7317 81.3527 42.9737 87.2659 44.5581L87.5574 44.6362Z" stroke="url(#paint3_linear_402_222)" stroke-linecap="round"/>
</g>
<g filter="url(#filter2_d_402_222)">
<path fill-rule="evenodd" clip-rule="evenodd" d="M85.7286 60.538C86.0859 59.2043 85.2945 57.8335 83.9608 57.4761C82.6272 57.1188 81.2563 57.9102 80.899 59.2439L72.2717 91.4414C71.9143 92.7751 72.7058 94.1459 74.0394 94.5033C75.3731 94.8607 76.7439 94.0692 77.1013 92.7355L85.7286 60.538ZM95.1567 76.8679C95.514 75.5343 94.7226 74.1634 93.3889 73.8061C92.0552 73.4487 90.6844 74.2402 90.327 75.5738L85.1507 94.8924C84.7933 96.226 85.5848 97.5969 86.9184 97.9542C88.2521 98.3116 89.6229 97.5201 89.9803 96.1865L95.1567 76.8679ZM67.6732 76.4056C68.0305 75.0719 67.2391 73.7011 65.9054 73.3437C64.5718 72.9864 63.2009 73.7778 62.8436 75.1115L59.3926 87.9905C59.0353 89.3242 59.8267 90.695 61.1604 91.0524C62.4941 91.4097 63.8649 90.6183 64.2223 89.2846L67.6732 76.4056Z" fill="url(#paint4_linear_402_222)"/>
</g>
</g>
</g>
<defs>
<filter id="filter0_b_402_222" x="-24" y="-24" width="200" height="200" filterUnits="userSpaceOnUse" color-interpolation-filters="sRGB">
<feFlood flood-opacity="0" result="BackgroundImageFix"/>
<feGaussianBlur in="BackgroundImageFix" stdDeviation="12"/>
<feComposite in2="SourceAlpha" operator="in" result="effect1_backgroundBlur_402_222"/>
<feBlend mode="normal" in="SourceGraphic" in2="effect1_backgroundBlur_402_222" result="shape"/>
</filter>
<filter id="filter1_b_402_222" x="19.272" y="16.2617" width="119.456" height="119.456" filterUnits="userSpaceOnUse" color-interpolation-filters="sRGB">
<feFlood flood-opacity="0" result="BackgroundImageFix"/>
<feGaussianBlur in="BackgroundImageFix" stdDeviation="12"/>
<feComposite in2="SourceAlpha" operator="in" result="effect1_backgroundBlur_402_222"/>
<feBlend mode="normal" in="SourceGraphic" in2="effect1_backgroundBlur_402_222" result="shape"/>
</filter>
<filter id="filter2_d_402_222" x="56.3069" y="54.3904" width="51.9355" height="56.6497" filterUnits="userSpaceOnUse" color-interpolation-filters="sRGB">
<feFlood flood-opacity="0" result="BackgroundImageFix"/>
<feColorMatrix in="SourceAlpha" type="matrix" values="0 0 0 0 0 0 0 0 0 0 0 0 0 0 0 0 0 0 127 0" result="hardAlpha"/>
<feOffset dx="5" dy="5"/>
<feGaussianBlur stdDeviation="4"/>
<feColorMatrix type="matrix" values="0 0 0 0 0.176471 0 0 0 0 0.556863 0 0 0 0 0.678431 0 0 0 0.5 0"/>
<feBlend mode="normal" in2="BackgroundImageFix" result="effect1_dropShadow_402_222"/>
<feBlend mode="normal" in="SourceGraphic" in2="effect1_dropShadow_402_222" result="shape"/>
</filter>
<radialGradient id="paint0_radial_402_222" cx="0" cy="0" r="1" gradientUnits="userSpaceOnUse" gradientTransform="translate(1 1) rotate(45) scale(212.132)">
<stop stop-color="#FAFAFA"/>
<stop offset="1" stop-color="#F7F7F7" stop-opacity="0"/>
</radialGradient>
<linearGradient id="paint1_linear_402_222" x1="76" y1="1" x2="76" y2="151" gradientUnits="userSpaceOnUse">
<stop stop-color="white"/>
<stop offset="1" stop-color="white" stop-opacity="0"/>
</linearGradient>
<linearGradient id="paint2_linear_402_222" x1="40.2555" y1="95.4861" x2="70.0519" y2="46.3802" gradientUnits="userSpaceOnUse">
<stop stop-color="#207894"/>
<stop offset="1" stop-color="#2ECDFF"/>
</linearGradient>
<linearGradient id="paint3_linear_402_222" x1="56.019" y1="36.1855" x2="102.021" y2="115.771" gradientUnits="userSpaceOnUse">
<stop stop-color="white" stop-opacity="0.25"/>
<stop offset="1" stop-color="white" stop-opacity="0"/>
</linearGradient>
<linearGradient id="paint4_linear_402_222" x1="72.1833" y1="102.461" x2="133.028" y2="75.3716" gradientUnits="userSpaceOnUse">
<stop stop-color="white"/>
<stop offset="1" stop-color="white" stop-opacity="0.2"/>
</linearGradient>
<clipPath id="clip0_402_222">
<rect width="100" height="100" fill="white" transform="translate(26 26)"/>
</clipPath>
<clipPath id="clip1_402_222">
<rect width="50" height="50" fill="white" transform="translate(24 52.9308) rotate(-15)"/>
</clipPath>
<clipPath id="clip2_402_222">
<rect width="80" height="80" fill="white" transform="translate(50.7158 27) rotate(15)"/>
</clipPath>
</defs>
</svg>
